<svg width="16" height="25" viewBox="0 0 16 25" fill="none" xmlns="http://www.w3.org/2000/svg">
<rect y="2" width="16" height="22" rx="2" fill="#ED7600"/>
<path d="M8.872 19.584C8.408 19.952 7.808 20.296 7.072 20.616C6.336 20.92 5.76 21.072 5.344 21.072C4.848 21.072 4.272 20.792 3.616 20.232C2.976 19.656 2.432 18.976 1.984 18.192C1.552 17.392 1.352 16.688 1.384 16.08C1.496 14.368 1.888 12.568 2.56 10.68C3.232 8.792 4.16 7.2 5.344 5.904C6.528 4.608 7.888 3.96 9.424 3.96C10.24 3.96 10.968 4.176 11.608 4.608C12.264 5.024 12.768 5.576 13.12 6.264C13.488 6.936 13.672 7.64 13.672 8.376C13.672 8.92 13.48 9.352 13.096 9.672C12.712 9.992 12.224 10.152 11.632 10.152C11.136 10.152 10.6 10.032 10.024 9.792C10.056 9.408 10.072 9.152 10.072 9.024C10.072 8.416 9.984 7.96 9.808 7.656C9.648 7.352 9.416 7.2 9.112 7.2C8.6 7.2 8.016 7.76 7.36 8.88C6.704 9.984 6.128 11.36 5.632 13.008C5.152 14.656 4.88 16.232 4.816 17.736C6.384 17.72 8.152 17.336 10.12 16.584L10.216 15.48C9.896 15.512 9.632 15.528 9.424 15.528C8.928 15.528 8.496 15.48 8.128 15.384C7.76 15.288 7.544 15.144 7.48 14.952C7.416 14.808 7.384 14.592 7.384 14.304C7.384 13.92 7.432 13.52 7.528 13.104C7.64 12.688 7.76 12.408 7.888 12.264C8.112 12.008 8.384 11.84 8.704 11.76C9.04 11.68 9.528 11.64 10.168 11.64C11.384 11.64 12.232 11.912 12.712 12.456C13.208 12.984 13.456 13.768 13.456 14.808C13.456 15.592 13.312 16.656 13.024 18C12.736 19.328 12.384 20.496 11.968 21.504C11.552 22.512 11.152 23.016 10.768 23.016C10.448 23.016 10.088 22.944 9.688 22.8C9.304 22.656 8.976 22.472 8.704 22.248C8.432 22.04 8.296 21.848 8.296 21.672C8.312 21.416 8.4 21.112 8.56 20.76C8.736 20.408 8.92 20.096 9.112 19.824L8.872 19.584Z" fill="white"/>
<path d="M8.872 19.584C8.408 19.952 7.808 20.296 7.072 20.616C6.336 20.92 5.76 21.072 5.344 21.072C4.848 21.072 4.272 20.792 3.616 20.232C2.976 19.656 2.432 18.976 1.984 18.192C1.552 17.392 1.352 16.688 1.384 16.08C1.496 14.368 1.888 12.568 2.56 10.68C3.232 8.792 4.16 7.2 5.344 5.904C6.528 4.608 7.888 3.96 9.424 3.96C10.24 3.96 10.968 4.176 11.608 4.608C12.264 5.024 12.768 5.576 13.12 6.264C13.488 6.936 13.672 7.64 13.672 8.376C13.672 8.92 13.48 9.352 13.096 9.672C12.712 9.992 12.224 10.152 11.632 10.152C11.136 10.152 10.6 10.032 10.024 9.792C10.056 9.408 10.072 9.152 10.072 9.024C10.072 8.416 9.984 7.96 9.808 7.656C9.648 7.352 9.416 7.2 9.112 7.2C8.6 7.2 8.016 7.76 7.36 8.88C6.704 9.984 6.128 11.36 5.632 13.008C5.152 14.656 4.88 16.232 4.816 17.736C6.384 17.72 8.152 17.336 10.12 16.584L10.216 15.48C9.896 15.512 9.632 15.528 9.424 15.528C8.928 15.528 8.496 15.48 8.128 15.384C7.76 15.288 7.544 15.144 7.48 14.952C7.416 14.808 7.384 14.592 7.384 14.304C7.384 13.92 7.432 13.52 7.528 13.104C7.64 12.688 7.76 12.408 7.888 12.264C8.112 12.008 8.384 11.84 8.704 11.76C9.04 11.68 9.528 11.64 10.168 11.64C11.384 11.64 12.232 11.912 12.712 12.456C13.208 12.984 13.456 13.768 13.456 14.808C13.456 15.592 13.312 16.656 13.024 18C12.736 19.328 12.384 20.496 11.968 21.504C11.552 22.512 11.152 23.016 10.768 23.016C10.448 23.016 10.088 22.944 9.688 22.8C9.304 22.656 8.976 22.472 8.704 22.248C8.432 22.04 8.296 21.848 8.296 21.672C8.312 21.416 8.4 21.112 8.56 20.76C8.736 20.408 8.92 20.096 9.112 19.824L8.872 19.584Z" fill="black"/>
</svg>